<?xml version="1.0" encoding="iso-8859-1"?>
<!-- Generator: Adobe Illustrator 19.0.0, SVG Export Plug-In . SVG Version: 6.00 Build 0)  -->
<svg xmlns="http://www.w3.org/2000/svg" xmlns:xlink="http://www.w3.org/1999/xlink" version="1.1" id="Layer_1" x="0px" y="0px" viewBox="0 0 512 512" style="enable-background:new 0 0 512 512;" xml:space="preserve" width="512" height="512">
<g>
	<g>
		<polygon style="fill:#EFEDEE;" points="327.657,376.88 184.342,376.88 160.079,455.696 184.342,504.5 232.806,504.5 256,493.235     279.193,504.5 327.657,504.5 351.921,455.696   "/>
		<path style="fill:#465059;" d="M144.165,376.88c0,0-68.079,35.844-68.079,127.62h49.013l7.5-5.317l7.5,5.317h44.244V376.88    H144.165z"/>
		<path style="fill:#465059;" d="M379.401,500.384l7.5,4.116h49.013c0-91.776-68.079-127.62-68.079-127.62h-40.177V504.5h44.244    L379.401,500.384z"/>
		<polygon style="fill:#C0344A;" points="279.193,504.5 269.166,455.696 242.833,455.696 232.806,504.5   "/>
		<path style="fill:#DA5B65;" d="M236.617,410.07v34.538c0,4.526,2.355,8.727,6.217,11.088l6.387,3.905    c4.162,2.545,9.398,2.545,13.559,0l6.387-3.905c3.862-2.361,6.217-6.562,6.217-11.088V410.07H236.617z"/>
		<path style="fill:#D4D2D3;" d="M225.848,387.539l-41.506,9.724l17.686,32.356c6.875,9.873,20.546,12.121,30.22,4.968L256,410.07    L225.848,387.539z"/>
		<path style="fill:#D4D2D3;" d="M286.151,387.539l41.506,9.724l-17.686,32.356c-6.875,9.873-20.546,12.121-30.22,4.968L256,410.07    L286.151,387.539z"/>
		<path style="fill:#465059;" d="M29.865,223.695c0-58.042,23.719-112.525,66.788-153.413C139.297,29.797,195.888,7.5,256,7.5    s116.703,22.297,159.347,62.782c43.069,40.888,66.788,95.372,66.788,153.413H29.865z"/>
		<path style="fill:#3C474D;" d="M136.653,70.282C174.532,34.32,223.419,12.725,276,8.345C269.385,7.794,262.716,7.5,256,7.5    c-60.112,0-116.702,22.296-159.347,62.782c-43.069,40.888-66.788,95.372-66.788,153.413h40    C69.865,165.653,93.584,111.17,136.653,70.282z"/>
		<circle style="fill:#DFB297;" cx="450.327" cy="234.629" r="40.92"/>
		<path style="fill:#FBC4AC;" d="M452.314,223.389c-0.034-19.684-5.563-39.024-15.876-55.791    C372.452,63.566,256,128.105,256,128.105S139.547,63.566,75.561,167.597c-10.313,16.767-15.842,36.107-15.876,55.791    c0,0.102,0,0.204,0,0.306c0,102.932,87.893,186.375,196.315,186.375s196.315-83.443,196.315-186.375    C452.315,223.593,452.314,223.491,452.314,223.389z"/>
		<path style="fill:#DFB297;" d="M89.685,223.695c0-0.102,0-0.204,0-0.306c0.034-19.684,5.563-39.024,15.876-55.791    c24.555-39.922,56.835-55.018,87.296-58.465c-37.671-3.939-84.412,5-117.296,58.465c-5.043,8.2-8.934,17.018-11.606,26.188    c-0.722-0.046-1.474-0.076-2.282-0.076c-22.599,0-40.92,18.32-40.92,40.92s18.32,40.92,40.92,40.92    c2.155,0,3.995-0.169,5.566-0.49C90.73,353.011,166.344,410.07,256,410.07c5.047,0,10.049-0.182,15-0.537    C169.586,402.258,89.685,321.836,89.685,223.695z"/>
		<g id="XMLID_38_">
			<path style="fill:#F98084;" d="M372.353,272.267h-27.21c-4.142,0-7.5-3.358-7.5-7.5s3.358-7.5,7.5-7.5h27.21     c4.142,0,7.5,3.358,7.5,7.5S376.495,272.267,372.353,272.267z"/>
		</g>
		<g id="XMLID_37_">
			<path style="fill:#F98084;" d="M166.857,272.267h-27.211c-4.142,0-7.5-3.358-7.5-7.5s3.358-7.5,7.5-7.5h27.211     c4.142,0,7.5,3.358,7.5,7.5S170.999,272.267,166.857,272.267z"/>
		</g>
	</g>
	<g>
		<path d="M358.748,242.902c4.142,0,7.5-3.358,7.5-7.5v-19.978c0-4.142-3.358-7.5-7.5-7.5s-7.5,3.358-7.5,7.5v19.978    C351.248,239.544,354.606,242.902,358.748,242.902z"/>
		<path d="M153.252,242.902c4.142,0,7.5-3.358,7.5-7.5v-19.978c0-4.142-3.358-7.5-7.5-7.5s-7.5,3.358-7.5,7.5v19.978    C145.752,239.544,149.109,242.902,153.252,242.902z"/>
		<path d="M279.313,249.861c-3.118-2.725-7.856-2.409-10.583,0.711c-3.092,3.538-7.732,5.567-12.73,5.567s-9.638-2.029-12.73-5.567    c-2.726-3.119-7.464-3.437-10.583-0.711c-3.119,2.726-3.437,7.464-0.711,10.583c5.941,6.797,14.698,10.695,24.024,10.695    s18.083-3.898,24.024-10.695C282.75,257.325,282.432,252.587,279.313,249.861z"/>
		<path d="M420.51,64.842c-7.93-7.528-16.496-14.581-25.461-20.961c-3.375-2.402-8.057-1.613-10.459,1.761    c-2.402,3.375-1.613,8.058,1.761,10.459c8.393,5.974,16.412,12.574,23.832,19.619c33.146,31.467,54.72,72.006,61.84,115.62    c-3.371-1.693-6.944-2.99-10.621-3.838c-2.299-0.54-4.682-0.917-7.053-1.113c-0.271-0.022-0.54-0.056-0.811-0.074    c-0.015-0.044-0.032-0.087-0.047-0.131c-5.932-17.221-16.117-32.825-28.422-46.164c-9.747-10.561-21.194-19.594-34.007-26.149    c-16.933-8.663-35.984-13.055-56.623-13.055c-6.262,0-12.454,0.525-18.678,1.148c-28.332,3.398-51.161,13.474-59.76,17.705    c-8.596-4.23-31.418-14.301-59.738-17.703c-6.205-0.745-12.45-1.15-18.7-1.15c-20.642,0-39.692,4.392-56.623,13.053    c-8.132,4.16-15.773,9.329-22.912,15.444c-12.83,10.991-23.588,24.519-31.72,39.308c-3.1,5.638-5.718,11.561-7.824,17.641    c-0.006,0.018-0.013,0.035-0.019,0.053c-0.271,0.018-0.538,0.052-0.808,0.074c-4.881,0.402-9.625,1.56-14.169,3.377    c-1.163,0.465-2.371,1.001-3.51,1.574c7.12-43.613,28.694-84.152,61.84-115.62C143.062,36.564,197.818,15,256,15    c36.765,0,73.046,8.82,104.923,25.508c3.669,1.922,8.201,0.503,10.123-3.166c1.921-3.67,0.503-8.202-3.166-10.123    C333.865,9.412,295.178,0,256,0C193.958,0,135.534,23.028,91.489,64.842C51.836,102.488,27.638,152.3,23.158,205.329    c-6.208,8.141-9.905,18.295-9.905,29.3c0,26.699,21.721,48.42,48.419,48.42c0.097,0,0.196-0.005,0.293-0.005    c12.673,37.401,36.979,69.876,68.856,93.544c-7.38,5.347-17.94,14.211-28.294,27.136c-2.589,3.232-2.068,7.953,1.165,10.542    c3.231,2.589,7.953,2.068,10.542-1.165c11.778-14.702,23.933-23.576,29.81-27.389c10.395,6.512,21.392,12.106,32.799,16.687V497    h-36.744v-42.419c0-4.142-3.358-7.5-7.5-7.5s-7.5,3.358-7.5,7.5V497H83.747c0.931-21.461,5.887-41.368,14.767-59.269    c1.841-3.71,0.325-8.211-3.386-10.052c-3.71-1.84-8.211-0.325-10.052,3.386c-10.943,22.059-16.491,46.766-16.491,73.435    c0,4.142,3.358,7.5,7.5,7.5h359.828c4.142,0,7.5-3.358,7.5-7.5c0-49.652-19.456-83.432-35.777-103.026    c-9.757-11.714-19.515-19.854-26.46-24.885c31.877-23.668,56.184-56.144,68.857-93.545c0.097,0,0.196,0.005,0.293,0.005    c26.699,0,48.42-21.721,48.42-48.42c0-11.005-3.697-21.159-9.905-29.3C484.361,152.299,460.163,102.487,420.51,64.842z     M57.486,267.788c-16.459-2.065-29.233-16.148-29.233-33.159c0-8.375,3.098-16.038,8.206-21.908    c4.628-5.32,10.915-9.106,17.79-10.674c-0.02,0.104-0.037,0.208-0.056,0.312c-1.655,8.791-2.184,17.733-1.929,26.666    C52.637,242.065,54.388,255.114,57.486,267.788z M285.309,497l-7.904-38.472c3.45-3.742,5.47-8.71,5.477-13.893    c3.04,1.07,6.25,1.637,9.546,1.638c9.445,0,18.305-4.624,23.698-12.367c1.566-2.248,2.718-4.88,4.031-7.283V497H285.309z     M253.133,453.202l-6.387-3.906c-1.622-0.991-2.629-2.788-2.629-4.689v-11.492L256,420.849l11.883,12.266v11.492    c0,1.901-1.007,3.698-2.63,4.689l-6.385,3.905C257.141,454.258,254.86,454.258,253.133,453.202z M312.071,410.141l-8.465,15.487    c-2.607,3.542-6.758,5.645-11.179,5.645c-2.789,0-5.462-0.826-7.766-2.395l-11.6-11.975c0.413-0.032,0.823-0.077,1.236-0.112    c7.73-0.655,15.489-1.738,23.131-3.237C302.343,412.59,307.237,411.455,312.071,410.141z M202.397,410.781    c11.969,3.1,24.214,5.156,36.541,6.122c0,0-11.596,11.971-11.601,11.975c-4.66,4.81-15.886,2.342-18.943-3.25    c-0.004-0.007-8.465-15.487-8.465-15.487C200.749,410.364,201.574,410.568,202.397,410.781z M191.842,426.62    c1.313,2.402,2.467,5.037,4.032,7.284c5.393,7.744,14.252,12.368,23.7,12.368c3.294,0,6.504-0.567,9.544-1.637    c0.007,5.183,2.028,10.151,5.477,13.892L226.691,497h-34.848V426.62z M242.004,497l6.078-29.582    c0.079,0.033,0.162,0.055,0.241,0.086c2.432,0.984,5.052,1.504,7.677,1.504c2.698,0,5.429-0.544,7.918-1.591L269.995,497H242.004z     M428.251,497h-41.35v-42.419c0-4.142-3.358-7.5-7.5-7.5s-7.5,3.358-7.5,7.5V497h-36.744v-94.601    c11.407-4.58,22.405-10.175,32.801-16.688C381.042,394.205,425.236,427.899,428.251,497z M284.751,400.5    c-0.025,0.004-0.051,0.007-0.076,0.011c-18.976,2.763-38.374,2.757-57.348,0c-0.026-0.004-0.053-0.008-0.079-0.011    c-81.146-11.795-145.439-72.708-157.881-149.584c-0.003-0.017-0.005-0.034-0.008-0.051c-1.745-10.178-2.454-20.612-2.106-30.934    c0.002-0.058,0.007-0.116,0.009-0.175c1.628-43.213,33.951-85.092,74.87-98.529c14.453-4.746,29.86-6.126,44.99-5.055    c27.354,1.936,50.725,11.555,60.458,16.117c1.611,0.755,3.224,1.521,4.784,2.377c2.356,1.293,5.109,1.165,7.439-0.091    c2.36-1.262,29.654-15.504,63.416-18.287c33.86-2.791,66.904,8.113,90.458,33.489c0.06,0.064,0.12,0.128,0.18,0.193    c12.138,13.129,21.95,28.661,26.985,45.906c4.768,16.331,4.709,33.694,2.468,50.438c-0.016,0.118-0.033,0.236-0.049,0.354    C432.541,325.54,367.385,388.489,284.751,400.5z M454.513,267.788c4.663-19.067,6.877-39.28,4.347-58.822    c-0.299-2.314-0.667-4.628-1.109-6.919c0.561,0.128,1.118,0.269,1.672,0.425c6.213,1.75,11.883,5.381,16.117,10.248    c5.108,5.871,8.207,13.534,8.207,21.909C483.747,251.64,470.973,265.723,454.513,267.788z"/>
	</g>
</g>















</svg>
